<mxfile host="app.diagrams.net" modified="2021-07-21T09:23:21.865Z" agent="5.0 (Windows NT 10.0; Win64; x64) AppleWebKit/537.36 (KHTML, like Gecko) Chrome/91.0.4472.124 Safari/537.36" etag="MIB5HOePmmVE7w8vBxQk" version="14.8.0" type="github">
  <diagram id="7RV-JXj0QohSXe9jy3x7" name="Page-1">
    <mxGraphModel dx="1422" dy="826" grid="1" gridSize="10" guides="1" tooltips="1" connect="1" arrows="1" fold="1" page="1" pageScale="1" pageWidth="827" pageHeight="1169" math="0" shadow="0">
      <root>
        <mxCell id="0" />
        <mxCell id="1" parent="0" />
        <mxCell id="yo01lzhlXYtrN9kHpcZc-21" value="" style="rounded=1;whiteSpace=wrap;html=1;fontSize=14;fillColor=none;dashed=1;strokeWidth=1;" vertex="1" parent="1">
          <mxGeometry x="50" y="590" width="229" height="140" as="geometry" />
        </mxCell>
        <mxCell id="yo01lzhlXYtrN9kHpcZc-27" value="" style="rounded=1;whiteSpace=wrap;html=1;fontSize=14;fillColor=none;dashed=1;strokeWidth=1;" vertex="1" parent="1">
          <mxGeometry x="50" y="340" width="370" height="120" as="geometry" />
        </mxCell>
        <mxCell id="yo01lzhlXYtrN9kHpcZc-23" value="" style="rounded=1;whiteSpace=wrap;html=1;fontSize=14;fillColor=none;dashed=1;strokeWidth=1;" vertex="1" parent="1">
          <mxGeometry x="50" y="480" width="224" height="100" as="geometry" />
        </mxCell>
        <mxCell id="yo01lzhlXYtrN9kHpcZc-1" value="加解密" style="rounded=0;whiteSpace=wrap;html=1;fontSize=14;" vertex="1" parent="1">
          <mxGeometry x="314" y="575" width="90" height="60" as="geometry" />
        </mxCell>
        <mxCell id="yo01lzhlXYtrN9kHpcZc-2" value="文件处理" style="rounded=0;whiteSpace=wrap;html=1;fontSize=14;" vertex="1" parent="1">
          <mxGeometry x="314" y="495" width="90" height="60" as="geometry" />
        </mxCell>
        <mxCell id="yo01lzhlXYtrN9kHpcZc-3" value="文件存储" style="rounded=0;whiteSpace=wrap;html=1;fontSize=14;" vertex="1" parent="1">
          <mxGeometry x="314" y="655" width="90" height="60" as="geometry" />
        </mxCell>
        <mxCell id="yo01lzhlXYtrN9kHpcZc-4" value="人脸ticket&lt;br&gt;管理" style="rounded=0;whiteSpace=wrap;html=1;fontSize=14;" vertex="1" parent="1">
          <mxGeometry x="174" y="495" width="90" height="60" as="geometry" />
        </mxCell>
        <mxCell id="yo01lzhlXYtrN9kHpcZc-5" value="风控" style="rounded=0;whiteSpace=wrap;html=1;fontSize=14;" vertex="1" parent="1">
          <mxGeometry x="65" y="605" width="199" height="30" as="geometry" />
        </mxCell>
        <mxCell id="yo01lzhlXYtrN9kHpcZc-6" value="活体接口" style="rounded=0;whiteSpace=wrap;html=1;fontSize=14;" vertex="1" parent="1">
          <mxGeometry x="65" y="655" width="90" height="60" as="geometry" />
        </mxCell>
        <mxCell id="yo01lzhlXYtrN9kHpcZc-9" value="公安接口" style="rounded=0;whiteSpace=wrap;html=1;fontSize=14;" vertex="1" parent="1">
          <mxGeometry x="174" y="655" width="90" height="60" as="geometry" />
        </mxCell>
        <mxCell id="yo01lzhlXYtrN9kHpcZc-10" value="识别业务方&lt;br&gt;配置管理" style="rounded=0;whiteSpace=wrap;html=1;fontSize=14;" vertex="1" parent="1">
          <mxGeometry x="65" y="495" width="90" height="60" as="geometry" />
        </mxCell>
        <mxCell id="yo01lzhlXYtrN9kHpcZc-12" value="钱包网关接入" style="rounded=0;whiteSpace=wrap;html=1;fontSize=14;" vertex="1" parent="1">
          <mxGeometry x="65" y="390" width="95" height="60" as="geometry" />
        </mxCell>
        <mxCell id="yo01lzhlXYtrN9kHpcZc-22" value="" style="rounded=1;whiteSpace=wrap;html=1;fontSize=14;fillColor=none;dashed=1;strokeWidth=1;" vertex="1" parent="1">
          <mxGeometry x="294" y="480" width="130" height="250" as="geometry" />
        </mxCell>
        <mxCell id="yo01lzhlXYtrN9kHpcZc-24" value="B端网关接入" style="rounded=0;whiteSpace=wrap;html=1;fontSize=14;" vertex="1" parent="1">
          <mxGeometry x="299" y="390" width="95" height="60" as="geometry" />
        </mxCell>
        <mxCell id="yo01lzhlXYtrN9kHpcZc-25" value="C端网关接入" style="rounded=0;whiteSpace=wrap;html=1;fontSize=14;" vertex="1" parent="1">
          <mxGeometry x="184" y="390" width="95" height="60" as="geometry" />
        </mxCell>
        <mxCell id="yo01lzhlXYtrN9kHpcZc-26" value="人脸网关安全协议验证" style="rounded=0;whiteSpace=wrap;html=1;fontSize=14;" vertex="1" parent="1">
          <mxGeometry x="184" y="350" width="206" height="30" as="geometry" />
        </mxCell>
        <mxCell id="yo01lzhlXYtrN9kHpcZc-28" value="" style="shape=flexArrow;endArrow=classic;html=1;fontSize=14;entryX=0.5;entryY=0;entryDx=0;entryDy=0;" edge="1" parent="1" target="yo01lzhlXYtrN9kHpcZc-27">
          <mxGeometry width="50" height="50" relative="1" as="geometry">
            <mxPoint x="235" y="250" as="sourcePoint" />
            <mxPoint x="340" y="230" as="targetPoint" />
          </mxGeometry>
        </mxCell>
        <mxCell id="yo01lzhlXYtrN9kHpcZc-50" style="edgeStyle=orthogonalEdgeStyle;rounded=0;orthogonalLoop=1;jettySize=auto;html=1;exitX=0.5;exitY=1;exitDx=0;exitDy=0;fontSize=14;" edge="1" parent="1" source="yo01lzhlXYtrN9kHpcZc-44" target="yo01lzhlXYtrN9kHpcZc-48">
          <mxGeometry relative="1" as="geometry" />
        </mxCell>
        <mxCell id="yo01lzhlXYtrN9kHpcZc-44" value="" style="ellipse;shape=doubleEllipse;whiteSpace=wrap;html=1;aspect=fixed;fontSize=17;strokeWidth=1;gradientColor=none;align=left;verticalAlign=middle;fillColor=#FFFFFF;shadow=0;" vertex="1" parent="1">
          <mxGeometry x="587.25" y="50" width="41" height="40" as="geometry" />
        </mxCell>
        <mxCell id="yo01lzhlXYtrN9kHpcZc-95" style="edgeStyle=orthogonalEdgeStyle;rounded=0;orthogonalLoop=1;jettySize=auto;html=1;exitX=0.5;exitY=1;exitDx=0;exitDy=0;fontSize=14;" edge="1" parent="1" source="yo01lzhlXYtrN9kHpcZc-47" target="yo01lzhlXYtrN9kHpcZc-53">
          <mxGeometry relative="1" as="geometry">
            <Array as="points">
              <mxPoint x="775" y="190" />
              <mxPoint x="608" y="190" />
            </Array>
          </mxGeometry>
        </mxCell>
        <mxCell id="yo01lzhlXYtrN9kHpcZc-47" value="人脸网关&lt;br&gt;安全协议验证" style="rounded=0;whiteSpace=wrap;html=1;shadow=0;glass=0;sketch=0;fontSize=14;strokeWidth=1;fillColor=#FFFFFF;gradientColor=none;align=center;verticalAlign=middle;" vertex="1" parent="1">
          <mxGeometry x="720" y="122.5" width="110" height="55" as="geometry" />
        </mxCell>
        <mxCell id="yo01lzhlXYtrN9kHpcZc-51" style="edgeStyle=orthogonalEdgeStyle;rounded=0;orthogonalLoop=1;jettySize=auto;html=1;exitX=1;exitY=0.5;exitDx=0;exitDy=0;entryX=0;entryY=0.5;entryDx=0;entryDy=0;fontSize=14;" edge="1" parent="1" source="yo01lzhlXYtrN9kHpcZc-48" target="yo01lzhlXYtrN9kHpcZc-47">
          <mxGeometry relative="1" as="geometry" />
        </mxCell>
        <mxCell id="yo01lzhlXYtrN9kHpcZc-52" style="edgeStyle=orthogonalEdgeStyle;rounded=0;orthogonalLoop=1;jettySize=auto;html=1;exitX=0.5;exitY=1;exitDx=0;exitDy=0;fontSize=14;" edge="1" parent="1" source="yo01lzhlXYtrN9kHpcZc-48" target="yo01lzhlXYtrN9kHpcZc-53">
          <mxGeometry relative="1" as="geometry">
            <mxPoint x="608" y="220" as="targetPoint" />
          </mxGeometry>
        </mxCell>
        <mxCell id="yo01lzhlXYtrN9kHpcZc-48" value="钱包网关？" style="rhombus;whiteSpace=wrap;html=1;rounded=0;shadow=0;glass=0;sketch=0;fontSize=14;strokeWidth=1;fillColor=#FFFFFF;gradientColor=none;align=center;verticalAlign=middle;" vertex="1" parent="1">
          <mxGeometry x="552.5" y="120" width="110" height="60" as="geometry" />
        </mxCell>
        <mxCell id="yo01lzhlXYtrN9kHpcZc-70" style="edgeStyle=orthogonalEdgeStyle;rounded=0;orthogonalLoop=1;jettySize=auto;html=1;exitX=0.5;exitY=1;exitDx=0;exitDy=0;entryX=0.5;entryY=0;entryDx=0;entryDy=0;fontSize=14;" edge="1" parent="1" source="yo01lzhlXYtrN9kHpcZc-53" target="yo01lzhlXYtrN9kHpcZc-54">
          <mxGeometry relative="1" as="geometry" />
        </mxCell>
        <mxCell id="yo01lzhlXYtrN9kHpcZc-53" value="参数验证&lt;br&gt;上下文信息收集" style="rounded=0;whiteSpace=wrap;html=1;shadow=0;glass=0;sketch=0;fontSize=14;strokeWidth=1;fillColor=#FFFFFF;gradientColor=none;align=center;verticalAlign=middle;" vertex="1" parent="1">
          <mxGeometry x="551.25" y="210" width="112.5" height="50" as="geometry" />
        </mxCell>
        <mxCell id="yo01lzhlXYtrN9kHpcZc-71" style="edgeStyle=orthogonalEdgeStyle;rounded=0;orthogonalLoop=1;jettySize=auto;html=1;exitX=0.5;exitY=1;exitDx=0;exitDy=0;entryX=0.5;entryY=0;entryDx=0;entryDy=0;fontSize=14;" edge="1" parent="1" source="yo01lzhlXYtrN9kHpcZc-54" target="yo01lzhlXYtrN9kHpcZc-56">
          <mxGeometry relative="1" as="geometry" />
        </mxCell>
        <mxCell id="yo01lzhlXYtrN9kHpcZc-54" value="拉取&lt;br&gt;业务方配置" style="rounded=0;whiteSpace=wrap;html=1;shadow=0;glass=0;sketch=0;fontSize=14;strokeWidth=1;fillColor=#FFFFFF;gradientColor=none;align=center;verticalAlign=middle;" vertex="1" parent="1">
          <mxGeometry x="552.5" y="290" width="112.5" height="50" as="geometry" />
        </mxCell>
        <mxCell id="yo01lzhlXYtrN9kHpcZc-74" style="edgeStyle=orthogonalEdgeStyle;rounded=0;orthogonalLoop=1;jettySize=auto;html=1;exitX=0.5;exitY=1;exitDx=0;exitDy=0;entryX=0.5;entryY=0;entryDx=0;entryDy=0;fontSize=14;" edge="1" parent="1" source="yo01lzhlXYtrN9kHpcZc-55" target="yo01lzhlXYtrN9kHpcZc-66">
          <mxGeometry relative="1" as="geometry">
            <Array as="points">
              <mxPoint x="775" y="430" />
              <mxPoint x="609" y="430" />
            </Array>
          </mxGeometry>
        </mxCell>
        <mxCell id="yo01lzhlXYtrN9kHpcZc-55" value="ticket验证&lt;br&gt;ticket信息获取" style="rounded=0;whiteSpace=wrap;html=1;shadow=0;glass=0;sketch=0;fontSize=14;strokeWidth=1;fillColor=#FFFFFF;gradientColor=none;align=center;verticalAlign=middle;" vertex="1" parent="1">
          <mxGeometry x="718.75" y="360" width="112.5" height="50" as="geometry" />
        </mxCell>
        <mxCell id="yo01lzhlXYtrN9kHpcZc-72" style="edgeStyle=orthogonalEdgeStyle;rounded=0;orthogonalLoop=1;jettySize=auto;html=1;exitX=1;exitY=0.5;exitDx=0;exitDy=0;entryX=0;entryY=0.5;entryDx=0;entryDy=0;fontSize=14;" edge="1" parent="1" source="yo01lzhlXYtrN9kHpcZc-56" target="yo01lzhlXYtrN9kHpcZc-55">
          <mxGeometry relative="1" as="geometry" />
        </mxCell>
        <mxCell id="yo01lzhlXYtrN9kHpcZc-73" style="edgeStyle=orthogonalEdgeStyle;rounded=0;orthogonalLoop=1;jettySize=auto;html=1;exitX=0.5;exitY=1;exitDx=0;exitDy=0;entryX=0.5;entryY=0;entryDx=0;entryDy=0;fontSize=14;" edge="1" parent="1" source="yo01lzhlXYtrN9kHpcZc-56" target="yo01lzhlXYtrN9kHpcZc-66">
          <mxGeometry relative="1" as="geometry" />
        </mxCell>
        <mxCell id="yo01lzhlXYtrN9kHpcZc-56" value="人脸ticket？" style="rhombus;whiteSpace=wrap;html=1;rounded=0;shadow=0;glass=0;sketch=0;fontSize=14;strokeWidth=1;fillColor=#FFFFFF;gradientColor=none;align=center;verticalAlign=middle;" vertex="1" parent="1">
          <mxGeometry x="552.5" y="355" width="110" height="60" as="geometry" />
        </mxCell>
        <mxCell id="yo01lzhlXYtrN9kHpcZc-76" style="edgeStyle=orthogonalEdgeStyle;rounded=0;orthogonalLoop=1;jettySize=auto;html=1;exitX=1;exitY=0.5;exitDx=0;exitDy=0;entryX=0;entryY=0.5;entryDx=0;entryDy=0;fontSize=14;" edge="1" parent="1" source="yo01lzhlXYtrN9kHpcZc-58" target="yo01lzhlXYtrN9kHpcZc-67">
          <mxGeometry relative="1" as="geometry" />
        </mxCell>
        <mxCell id="yo01lzhlXYtrN9kHpcZc-58" value="文件解密、处理、上传、落表" style="rounded=0;whiteSpace=wrap;html=1;shadow=0;glass=0;sketch=0;fontSize=14;strokeWidth=1;fillColor=#FFFFFF;gradientColor=none;align=center;verticalAlign=middle;" vertex="1" parent="1">
          <mxGeometry x="551.25" y="530" width="112.5" height="50" as="geometry" />
        </mxCell>
        <mxCell id="yo01lzhlXYtrN9kHpcZc-78" style="edgeStyle=orthogonalEdgeStyle;rounded=0;orthogonalLoop=1;jettySize=auto;html=1;exitX=1;exitY=0.5;exitDx=0;exitDy=0;entryX=0;entryY=0.5;entryDx=0;entryDy=0;fontSize=14;" edge="1" parent="1" source="yo01lzhlXYtrN9kHpcZc-60" target="yo01lzhlXYtrN9kHpcZc-68">
          <mxGeometry relative="1" as="geometry" />
        </mxCell>
        <mxCell id="yo01lzhlXYtrN9kHpcZc-60" value="活体" style="rounded=0;whiteSpace=wrap;html=1;shadow=0;glass=0;sketch=0;fontSize=14;strokeWidth=1;fillColor=#FFFFFF;gradientColor=none;align=center;verticalAlign=middle;" vertex="1" parent="1">
          <mxGeometry x="551.25" y="610" width="112.5" height="50" as="geometry" />
        </mxCell>
        <mxCell id="yo01lzhlXYtrN9kHpcZc-80" style="edgeStyle=orthogonalEdgeStyle;rounded=0;orthogonalLoop=1;jettySize=auto;html=1;exitX=0.5;exitY=1;exitDx=0;exitDy=0;entryX=0.5;entryY=0;entryDx=0;entryDy=0;fontSize=14;" edge="1" parent="1" source="yo01lzhlXYtrN9kHpcZc-61" target="yo01lzhlXYtrN9kHpcZc-62">
          <mxGeometry relative="1" as="geometry" />
        </mxCell>
        <mxCell id="yo01lzhlXYtrN9kHpcZc-61" value="公安" style="rounded=0;whiteSpace=wrap;html=1;shadow=0;glass=0;sketch=0;fontSize=14;strokeWidth=1;fillColor=#FFFFFF;gradientColor=none;align=center;verticalAlign=middle;" vertex="1" parent="1">
          <mxGeometry x="550" y="690" width="112.5" height="50" as="geometry" />
        </mxCell>
        <mxCell id="yo01lzhlXYtrN9kHpcZc-89" style="edgeStyle=orthogonalEdgeStyle;rounded=0;orthogonalLoop=1;jettySize=auto;html=1;exitX=0.5;exitY=1;exitDx=0;exitDy=0;entryX=0.5;entryY=0;entryDx=0;entryDy=0;fontSize=14;" edge="1" parent="1" source="yo01lzhlXYtrN9kHpcZc-62" target="yo01lzhlXYtrN9kHpcZc-84">
          <mxGeometry relative="1" as="geometry" />
        </mxCell>
        <mxCell id="yo01lzhlXYtrN9kHpcZc-62" value="风控上报、检测" style="rounded=0;whiteSpace=wrap;html=1;shadow=0;glass=0;sketch=0;fontSize=14;strokeWidth=1;fillColor=#FFFFFF;gradientColor=none;align=center;verticalAlign=middle;" vertex="1" parent="1">
          <mxGeometry x="550" y="770" width="112.5" height="50" as="geometry" />
        </mxCell>
        <mxCell id="yo01lzhlXYtrN9kHpcZc-64" value="结束" style="ellipse;shape=doubleEllipse;whiteSpace=wrap;html=1;aspect=fixed;rounded=0;shadow=0;glass=0;sketch=0;fontSize=14;strokeWidth=1;fillColor=#FFFFFF;gradientColor=none;align=center;verticalAlign=middle;" vertex="1" parent="1">
          <mxGeometry x="581.25" y="960" width="50" height="50" as="geometry" />
        </mxCell>
        <mxCell id="yo01lzhlXYtrN9kHpcZc-75" style="edgeStyle=orthogonalEdgeStyle;rounded=0;orthogonalLoop=1;jettySize=auto;html=1;exitX=0.5;exitY=1;exitDx=0;exitDy=0;entryX=0.5;entryY=0;entryDx=0;entryDy=0;fontSize=14;" edge="1" parent="1" source="yo01lzhlXYtrN9kHpcZc-66" target="yo01lzhlXYtrN9kHpcZc-58">
          <mxGeometry relative="1" as="geometry" />
        </mxCell>
        <mxCell id="yo01lzhlXYtrN9kHpcZc-66" value="单日识别上限达到上限？" style="rhombus;whiteSpace=wrap;html=1;rounded=0;shadow=0;glass=0;sketch=0;fontSize=14;strokeWidth=1;fillColor=#FFFFFF;gradientColor=none;align=center;verticalAlign=middle;" vertex="1" parent="1">
          <mxGeometry x="553.75" y="440" width="110" height="60" as="geometry" />
        </mxCell>
        <mxCell id="yo01lzhlXYtrN9kHpcZc-77" style="edgeStyle=orthogonalEdgeStyle;rounded=0;orthogonalLoop=1;jettySize=auto;html=1;exitX=0.5;exitY=1;exitDx=0;exitDy=0;entryX=0.5;entryY=0;entryDx=0;entryDy=0;fontSize=14;" edge="1" parent="1" source="yo01lzhlXYtrN9kHpcZc-67" target="yo01lzhlXYtrN9kHpcZc-60">
          <mxGeometry relative="1" as="geometry">
            <Array as="points">
              <mxPoint x="774" y="590" />
              <mxPoint x="608" y="590" />
            </Array>
          </mxGeometry>
        </mxCell>
        <mxCell id="yo01lzhlXYtrN9kHpcZc-81" style="edgeStyle=orthogonalEdgeStyle;rounded=0;orthogonalLoop=1;jettySize=auto;html=1;exitX=1;exitY=0.5;exitDx=0;exitDy=0;entryX=1;entryY=0.5;entryDx=0;entryDy=0;fontSize=14;" edge="1" parent="1" source="yo01lzhlXYtrN9kHpcZc-67" target="yo01lzhlXYtrN9kHpcZc-62">
          <mxGeometry relative="1" as="geometry" />
        </mxCell>
        <mxCell id="yo01lzhlXYtrN9kHpcZc-67" value="文件处理异常" style="rhombus;whiteSpace=wrap;html=1;rounded=0;shadow=0;glass=0;sketch=0;fontSize=14;strokeWidth=1;fillColor=#FFFFFF;gradientColor=none;align=center;verticalAlign=middle;" vertex="1" parent="1">
          <mxGeometry x="718.75" y="525" width="110" height="60" as="geometry" />
        </mxCell>
        <mxCell id="yo01lzhlXYtrN9kHpcZc-79" style="edgeStyle=orthogonalEdgeStyle;rounded=0;orthogonalLoop=1;jettySize=auto;html=1;exitX=0.5;exitY=1;exitDx=0;exitDy=0;entryX=0.5;entryY=0;entryDx=0;entryDy=0;fontSize=14;" edge="1" parent="1" source="yo01lzhlXYtrN9kHpcZc-68" target="yo01lzhlXYtrN9kHpcZc-61">
          <mxGeometry relative="1" as="geometry">
            <Array as="points">
              <mxPoint x="775" y="670" />
              <mxPoint x="606" y="670" />
            </Array>
          </mxGeometry>
        </mxCell>
        <mxCell id="yo01lzhlXYtrN9kHpcZc-82" style="edgeStyle=orthogonalEdgeStyle;rounded=0;orthogonalLoop=1;jettySize=auto;html=1;exitX=1;exitY=0.5;exitDx=0;exitDy=0;entryX=1;entryY=0.5;entryDx=0;entryDy=0;fontSize=14;" edge="1" parent="1" source="yo01lzhlXYtrN9kHpcZc-68" target="yo01lzhlXYtrN9kHpcZc-62">
          <mxGeometry relative="1" as="geometry" />
        </mxCell>
        <mxCell id="yo01lzhlXYtrN9kHpcZc-68" value="活体驳回或失败" style="rhombus;whiteSpace=wrap;html=1;rounded=0;shadow=0;glass=0;sketch=0;fontSize=14;strokeWidth=1;fillColor=#FFFFFF;gradientColor=none;align=center;verticalAlign=middle;" vertex="1" parent="1">
          <mxGeometry x="720" y="605" width="110" height="60" as="geometry" />
        </mxCell>
        <mxCell id="yo01lzhlXYtrN9kHpcZc-90" style="edgeStyle=orthogonalEdgeStyle;rounded=0;orthogonalLoop=1;jettySize=auto;html=1;exitX=0.5;exitY=1;exitDx=0;exitDy=0;entryX=0.5;entryY=0;entryDx=0;entryDy=0;fontSize=14;" edge="1" parent="1" source="yo01lzhlXYtrN9kHpcZc-84" target="yo01lzhlXYtrN9kHpcZc-64">
          <mxGeometry relative="1" as="geometry" />
        </mxCell>
        <mxCell id="yo01lzhlXYtrN9kHpcZc-105" value="" style="edgeStyle=orthogonalEdgeStyle;rounded=0;orthogonalLoop=1;jettySize=auto;html=1;fontSize=14;" edge="1" parent="1" source="yo01lzhlXYtrN9kHpcZc-84" target="yo01lzhlXYtrN9kHpcZc-86">
          <mxGeometry relative="1" as="geometry" />
        </mxCell>
        <mxCell id="yo01lzhlXYtrN9kHpcZc-84" value="识别结果落表" style="rounded=0;whiteSpace=wrap;html=1;shadow=0;glass=0;sketch=0;fontSize=14;strokeWidth=1;fillColor=#FFFFFF;gradientColor=none;align=center;verticalAlign=middle;" vertex="1" parent="1">
          <mxGeometry x="550" y="850" width="112.5" height="50" as="geometry" />
        </mxCell>
        <mxCell id="yo01lzhlXYtrN9kHpcZc-86" value="结果&lt;br&gt;异步发送tiger" style="rounded=0;whiteSpace=wrap;html=1;shadow=0;glass=0;sketch=0;fontSize=14;strokeWidth=1;fillColor=#FFFFFF;gradientColor=none;align=center;verticalAlign=middle;" vertex="1" parent="1">
          <mxGeometry x="690" y="850" width="112.5" height="50" as="geometry" />
        </mxCell>
        <mxCell id="yo01lzhlXYtrN9kHpcZc-92" value="Y" style="text;html=1;strokeColor=none;fillColor=none;align=center;verticalAlign=middle;whiteSpace=wrap;rounded=0;shadow=0;glass=0;sketch=0;fontSize=14;" vertex="1" parent="1">
          <mxGeometry x="587.25" y="177.5" width="20" height="25" as="geometry" />
        </mxCell>
        <mxCell id="yo01lzhlXYtrN9kHpcZc-94" value="N" style="text;html=1;strokeColor=none;fillColor=none;align=center;verticalAlign=middle;whiteSpace=wrap;rounded=0;shadow=0;glass=0;sketch=0;fontSize=14;" vertex="1" parent="1">
          <mxGeometry x="680" y="130" width="20" height="25" as="geometry" />
        </mxCell>
        <mxCell id="yo01lzhlXYtrN9kHpcZc-98" value="Y" style="text;html=1;strokeColor=none;fillColor=none;align=center;verticalAlign=middle;whiteSpace=wrap;rounded=0;shadow=0;glass=0;sketch=0;fontSize=14;" vertex="1" parent="1">
          <mxGeometry x="680" y="360" width="20" height="25" as="geometry" />
        </mxCell>
        <mxCell id="yo01lzhlXYtrN9kHpcZc-99" value="Y" style="text;html=1;strokeColor=none;fillColor=none;align=center;verticalAlign=middle;whiteSpace=wrap;rounded=0;shadow=0;glass=0;sketch=0;fontSize=14;" vertex="1" parent="1">
          <mxGeometry x="830" y="525" width="20" height="25" as="geometry" />
        </mxCell>
        <mxCell id="yo01lzhlXYtrN9kHpcZc-100" value="Y" style="text;html=1;strokeColor=none;fillColor=none;align=center;verticalAlign=middle;whiteSpace=wrap;rounded=0;shadow=0;glass=0;sketch=0;fontSize=14;" vertex="1" parent="1">
          <mxGeometry x="828.75" y="610" width="20" height="25" as="geometry" />
        </mxCell>
        <mxCell id="yo01lzhlXYtrN9kHpcZc-101" value="N" style="text;html=1;strokeColor=none;fillColor=none;align=center;verticalAlign=middle;whiteSpace=wrap;rounded=0;shadow=0;glass=0;sketch=0;fontSize=14;" vertex="1" parent="1">
          <mxGeometry x="587.25" y="410" width="20" height="25" as="geometry" />
        </mxCell>
        <mxCell id="yo01lzhlXYtrN9kHpcZc-102" value="N" style="text;html=1;strokeColor=none;fillColor=none;align=center;verticalAlign=middle;whiteSpace=wrap;rounded=0;shadow=0;glass=0;sketch=0;fontSize=14;" vertex="1" parent="1">
          <mxGeometry x="730" y="570" width="20" height="25" as="geometry" />
        </mxCell>
        <mxCell id="yo01lzhlXYtrN9kHpcZc-103" value="N" style="text;html=1;strokeColor=none;fillColor=none;align=center;verticalAlign=middle;whiteSpace=wrap;rounded=0;shadow=0;glass=0;sketch=0;fontSize=14;" vertex="1" parent="1">
          <mxGeometry x="730" y="650" width="20" height="25" as="geometry" />
        </mxCell>
      </root>
    </mxGraphModel>
  </diagram>
</mxfile>
